<?xml version="1.0" encoding="utf-8"?>
<!-- Generator: Adobe Illustrator 19.2.1, SVG Export Plug-In . SVG Version: 6.00 Build 0)  -->
<svg version="1.1" id="Layer_1" xmlns="http://www.w3.org/2000/svg" xmlns:xlink="http://www.w3.org/1999/xlink" x="0px" y="0px"
	 width="720px" height="720px" viewBox="0 0 720 720" style="enable-background:new 0 0 720 720;" xml:space="preserve">
<style type="text/css">
	.st0{fill:#231F20;}
</style>
<title>tank2</title>
<path class="st0" d="M674.4,365.3c-23.6-34.1-56.1-61.1-94-77.9c-4-1.8-6.5-5.7-6.5-10.1c0-6.2,0-12.8,0-19.7
	c0-22.6,15.2-41.6,31.7-42.1c8.5-0.2,15.1-7.3,14.9-15.8c-0.2-8.5-7.3-15.1-15.8-14.9c-0.3,0-0.6,0-0.8,0h-0.2
	c-38.4,1.6-60.4,37.8-60.4,72.7c0,10.4,0,20.3-0.1,28.7c-0.1,11.5,6.9,21.8,17.6,26c7.7,3.1,15.2,6.6,22.5,10.6
	c3.2,1.8,4.4,5.8,2.6,9c-0.4,0.7-0.9,1.4-1.6,1.9c-2.1,1.7-4.1,3.5-6.1,5.2c0,0-18.9,15.9-58.5,37.8c-40.7,22.6-83,18.8-99.4,17.4
	c-20.3-1.8-41.8-9.4-84.8-24.5c-29.5-10.4-35.9-14.4-62.4-22.5c-23.5-7.1-40.2-10.5-64.3-15.3c-27.3-5.5-47.6-8.4-63.6-8.5
	c-1.3,0-2.3-1.1-2.3-2.3c0-0.9,0.5-1.7,1.3-2c4.4-2.2,9-4.3,13.6-6.2c10.7-4.3,17.7-14.8,17.4-26.3c-0.2-10-0.3-19.7-0.3-29
	c0-20.2-7.6-69.6-58.1-72.6c-8.4-1.1-16.1,4.9-17.2,13.3s4.9,16.1,13.3,17.2c0.4,0.1,0.8,0.1,1.2,0.1c25,1.3,30.1,27,30.1,42.1
	c0,6.6,0,13.4,0.2,20.3c0.1,4.4-2.5,8.3-6.4,10.2c-37.5,17-69.6,44-92.9,77.9C19.2,403.3,5.4,447.6,5.5,493
	c0.3,96.2,74,176.3,169.8,184.5v8.8c0,18.6,15.1,33.7,33.7,33.7l0,0h301.9c18.6,0,33.7-15.1,33.7-33.7v-8.8
	c95.8-8.2,169.5-88.3,169.8-184.5C714.5,447.3,700.5,402.7,674.4,365.3z M70.2,383.4l0.1-0.2c4.3-6.2,10.6-10.8,17.8-13.1
	c9.1-2.9,22.2-7.6,39.8-11.5c12.8-2.8,41.4-9,76-6.1c27.7,2.3,48.8,9.5,62.4,14.3c22.6,7.9,26.4,12.4,68.1,29.2
	c17.7,7.1,26.6,10.5,38.1,13.7c15.1,4.3,39.8,9.7,75,9.2c79.8-1,147.4-31.1,173.6-55.7c3.6-3.4,9.3-3.3,12.7,0.3
	c0.1,0.1,0.1,0.2,0.2,0.2c5.4,6.1,10.5,12.5,15.1,19.1c22.5,32.3,34.6,70.8,34.5,110.2c0,16.1-2.5,32.1-7.5,47.5
	c-2,6.5-6,12.2-11.3,16.3l-0.1,0.1c-17.7,13.3-34.3,28.9-55.9,37.7c-34.9,14.3-75.9,9.5-111.1,22c-17.9,6.3-34,16.1-48.4,27.1
	c-7.8,6-16.7,13.2-26.5,18.2l-2.1,0.3c-17.4,2.6-104.5,2.6-121.9,0l-2.1-0.3c-9.8-5-18.6-12.2-26.5-18.2
	c-14.3-11-30.5-20.8-48.4-27.1c-35.2-12.5-76.2-7.6-111.1-22c-21.6-8.8-38.1-24.5-55.9-37.7l-0.1-0.1c-5.4-4.1-9.3-9.8-11.3-16.3
	c-5-15.3-7.5-31.4-7.5-47.5C36.1,453.8,48,415.6,70.2,383.4z"/>
</svg>
